<svg xmlns="http://www.w3.org/2000/svg" viewBox="0 0 59 59" shape-rendering="crispEdges"><rect width="59" height="59" fill="#0d1117"/><g fill="#58a6ff" fill-opacity="0.30"><rect x="21" y="4" width="1" height="1"/><rect x="22" y="4" width="1" height="1"/><rect x="23" y="4" width="1" height="1"/><rect x="24" y="4" width="1" height="1"/><rect x="25" y="4" width="1" height="1"/><rect x="26" y="4" width="1" height="1"/><rect x="27" y="4" width="1" height="1"/><rect x="28" y="4" width="1" height="1"/><rect x="29" y="4" width="1" height="1"/><rect x="30" y="4" width="1" height="1"/><rect x="31" y="4" width="1" height="1"/><rect x="32" y="4" width="1" height="1"/><rect x="33" y="4" width="1" height="1"/><rect x="34" y="4" width="1" height="1"/><rect x="35" y="4" width="1" height="1"/><rect x="36" y="4" width="1" height="1"/><rect x="37" y="4" width="1" height="1"/><rect x="38" y="4" width="1" height="1"/><rect x="39" y="4" width="1" height="1"/><rect x="40" y="4" width="1" height="1"/><rect x="41" y="4" width="1" height="1"/><rect x="42" y="4" width="1" height="1"/><rect x="43" y="4" width="1" height="1"/><rect x="44" y="4" width="1" height="1"/><rect x="45" y="4" width="1" height="1"/><rect x="46" y="4" width="1" height="1"/><rect x="47" y="4" width="1" height="1"/><rect x="48" y="4" width="1" height="1"/><rect x="49" y="4" width="1" height="1"/><rect x="50" y="4" width="1" height="1"/><rect x="50" y="5" width="1" height="1"/><rect x="53" y="6" width="1" height="1"/><rect x="20" y="8" width="1" height="1"/><rect x="26" y="10" width="1" height="1"/><rect x="48" y="10" width="1" height="1"/><rect x="47" y="11" width="1" height="1"/><rect x="46" y="12" width="1" height="1"/><rect x="42" y="13" width="1" height="1"/><rect x="26" y="14" width="1" height="1"/><rect x="43" y="16" width="1" height="1"/><rect x="24" y="17" width="1" height="1"/><rect x="11" y="19" width="1" height="1"/><rect x="17" y="19" width="1" height="1"/><rect x="22" y="19" width="1" height="1"/><rect x="9" y="21" width="1" height="1"/><rect x="12" y="22" width="1" height="1"/><rect x="17" y="23" width="1" height="1"/><rect x="10" y="26" width="1" height="1"/><rect x="41" y="29" width="1" height="1"/><rect x="42" y="29" width="1" height="1"/><rect x="43" y="29" width="1" height="1"/><rect x="44" y="29" width="1" height="1"/><rect x="45" y="29" width="1" height="1"/><rect x="20" y="30" width="1" height="1"/><rect x="6" y="32" width="1" height="1"/><rect x="6" y="33" width="1" height="1"/><rect x="6" y="34" width="1" height="1"/><rect x="6" y="35" width="1" height="1"/><rect x="49" y="35" width="1" height="1"/><rect x="6" y="36" width="1" height="1"/><rect x="6" y="37" width="1" height="1"/><rect x="6" y="38" width="1" height="1"/><rect x="6" y="39" width="1" height="1"/><rect x="6" y="40" width="1" height="1"/><rect x="6" y="41" width="1" height="1"/><rect x="6" y="42" width="1" height="1"/><rect x="6" y="43" width="1" height="1"/><rect x="20" y="45" width="1" height="1"/><rect x="23" y="46" width="1" height="1"/><rect x="12" y="47" width="1" height="1"/><rect x="30" y="47" width="1" height="1"/><rect x="10" y="48" width="1" height="1"/><rect x="13" y="49" width="1" height="1"/><rect x="22" y="49" width="1" height="1"/><rect x="23" y="49" width="1" height="1"/><rect x="24" y="49" width="1" height="1"/><rect x="14" y="50" width="1" height="1"/><rect x="12" y="52" width="1" height="1"/><rect x="18" y="53" width="1" height="1"/><rect x="10" y="54" width="1" height="1"/><rect x="33" y="55" width="1" height="1"/><rect x="12" y="56" width="1" height="1"/><rect x="18" y="56" width="1" height="1"/><rect x="31" y="56" width="1" height="1"/></g><g fill="#58a6ff" fill-opacity="0.55"><rect x="20" y="4" width="1" height="1"/><rect x="23" y="7" width="1" height="1"/><rect x="49" y="9" width="1" height="1"/><rect x="27" y="15" width="1" height="1"/><rect x="27" y="19" width="1" height="1"/><rect x="14" y="20" width="1" height="1"/><rect x="26" y="22" width="1" height="1"/><rect x="8" y="23" width="1" height="1"/><rect x="13" y="23" width="1" height="1"/><rect x="29" y="23" width="1" height="1"/><rect x="49" y="26" width="1" height="1"/><rect x="22" y="29" width="1" height="1"/><rect x="46" y="29" width="1" height="1"/><rect x="9" y="30" width="1" height="1"/><rect x="14" y="30" width="1" height="1"/><rect x="9" y="31" width="1" height="1"/><rect x="14" y="31" width="1" height="1"/><rect x="9" y="32" width="1" height="1"/><rect x="14" y="32" width="1" height="1"/><rect x="18" y="32" width="1" height="1"/><rect x="9" y="33" width="1" height="1"/><rect x="14" y="33" width="1" height="1"/><rect x="18" y="33" width="1" height="1"/><rect x="22" y="33" width="1" height="1"/><rect x="52" y="33" width="1" height="1"/><rect x="9" y="34" width="1" height="1"/><rect x="14" y="34" width="1" height="1"/><rect x="18" y="34" width="1" height="1"/><rect x="22" y="34" width="1" height="1"/><rect x="9" y="35" width="1" height="1"/><rect x="14" y="35" width="1" height="1"/><rect x="18" y="35" width="1" height="1"/><rect x="22" y="35" width="1" height="1"/><rect x="9" y="36" width="1" height="1"/><rect x="14" y="36" width="1" height="1"/><rect x="18" y="36" width="1" height="1"/><rect x="22" y="36" width="1" height="1"/><rect x="9" y="37" width="1" height="1"/><rect x="14" y="37" width="1" height="1"/><rect x="18" y="37" width="1" height="1"/><rect x="22" y="37" width="1" height="1"/><rect x="9" y="38" width="1" height="1"/><rect x="14" y="38" width="1" height="1"/><rect x="18" y="38" width="1" height="1"/><rect x="22" y="38" width="1" height="1"/><rect x="9" y="39" width="1" height="1"/><rect x="14" y="39" width="1" height="1"/><rect x="18" y="39" width="1" height="1"/><rect x="22" y="39" width="1" height="1"/><rect x="9" y="40" width="1" height="1"/><rect x="14" y="40" width="1" height="1"/><rect x="18" y="40" width="1" height="1"/><rect x="22" y="40" width="1" height="1"/><rect x="9" y="41" width="1" height="1"/><rect x="14" y="41" width="1" height="1"/><rect x="18" y="41" width="1" height="1"/><rect x="22" y="41" width="1" height="1"/><rect x="9" y="42" width="1" height="1"/><rect x="14" y="42" width="1" height="1"/><rect x="18" y="42" width="1" height="1"/><rect x="22" y="42" width="1" height="1"/><rect x="9" y="43" width="1" height="1"/><rect x="14" y="43" width="1" height="1"/><rect x="18" y="43" width="1" height="1"/><rect x="22" y="43" width="1" height="1"/><rect x="9" y="44" width="1" height="1"/><rect x="14" y="44" width="1" height="1"/><rect x="18" y="44" width="1" height="1"/><rect x="9" y="45" width="1" height="1"/><rect x="16" y="46" width="1" height="1"/><rect x="28" y="47" width="1" height="1"/><rect x="27" y="50" width="1" height="1"/><rect x="31" y="50" width="1" height="1"/><rect x="8" y="51" width="1" height="1"/><rect x="22" y="51" width="1" height="1"/><rect x="23" y="51" width="1" height="1"/><rect x="30" y="51" width="1" height="1"/><rect x="37" y="51" width="1" height="1"/><rect x="39" y="52" width="1" height="1"/><rect x="11" y="55" width="1" height="1"/><rect x="36" y="56" width="1" height="1"/><rect x="24" y="57" width="1" height="1"/><rect x="25" y="57" width="1" height="1"/><rect x="26" y="57" width="1" height="1"/><rect x="16" y="58" width="1" height="1"/></g><g fill="#58a6ff" fill-opacity="0.78"><rect x="43" y="12" width="1" height="1"/><rect x="45" y="13" width="1" height="1"/><rect x="15" y="21" width="1" height="1"/><rect x="24" y="21" width="1" height="1"/><rect x="14" y="22" width="1" height="1"/><rect x="23" y="24" width="1" height="1"/><rect x="41" y="26" width="1" height="1"/><rect x="42" y="26" width="1" height="1"/><rect x="43" y="26" width="1" height="1"/><rect x="44" y="26" width="1" height="1"/><rect x="45" y="26" width="1" height="1"/><rect x="30" y="29" width="1" height="1"/><rect x="41" y="30" width="1" height="1"/><rect x="42" y="30" width="1" height="1"/><rect x="43" y="30" width="1" height="1"/><rect x="44" y="30" width="1" height="1"/><rect x="45" y="30" width="1" height="1"/><rect x="46" y="30" width="1" height="1"/><rect x="14" y="45" width="1" height="1"/><rect x="15" y="47" width="1" height="1"/><rect x="23" y="47" width="1" height="1"/><rect x="11" y="51" width="1" height="1"/><rect x="28" y="52" width="1" height="1"/><rect x="15" y="55" width="1" height="1"/><rect x="37" y="55" width="1" height="1"/><rect x="22" y="57" width="1" height="1"/><rect x="23" y="57" width="1" height="1"/></g><g fill="#58a6ff" fill-opacity="1.00"><rect x="17" y="2" width="1" height="1"/><rect x="18" y="2" width="1" height="1"/><rect x="19" y="2" width="1" height="1"/><rect x="20" y="2" width="1" height="1"/><rect x="21" y="2" width="1" height="1"/><rect x="22" y="2" width="1" height="1"/><rect x="23" y="2" width="1" height="1"/><rect x="24" y="2" width="1" height="1"/><rect x="25" y="2" width="1" height="1"/><rect x="26" y="2" width="1" height="1"/><rect x="27" y="2" width="1" height="1"/><rect x="28" y="2" width="1" height="1"/><rect x="29" y="2" width="1" height="1"/><rect x="30" y="2" width="1" height="1"/><rect x="31" y="2" width="1" height="1"/><rect x="32" y="2" width="1" height="1"/><rect x="33" y="2" width="1" height="1"/><rect x="34" y="2" width="1" height="1"/><rect x="35" y="2" width="1" height="1"/><rect x="36" y="2" width="1" height="1"/><rect x="37" y="2" width="1" height="1"/><rect x="38" y="2" width="1" height="1"/><rect x="39" y="2" width="1" height="1"/><rect x="40" y="2" width="1" height="1"/><rect x="41" y="2" width="1" height="1"/><rect x="42" y="2" width="1" height="1"/><rect x="43" y="2" width="1" height="1"/><rect x="44" y="2" width="1" height="1"/><rect x="45" y="2" width="1" height="1"/><rect x="46" y="2" width="1" height="1"/><rect x="47" y="2" width="1" height="1"/><rect x="48" y="2" width="1" height="1"/><rect x="49" y="2" width="1" height="1"/><rect x="50" y="2" width="1" height="1"/><rect x="51" y="2" width="1" height="1"/><rect x="52" y="2" width="1" height="1"/><rect x="53" y="2" width="1" height="1"/><rect x="17" y="3" width="1" height="1"/><rect x="18" y="3" width="1" height="1"/><rect x="19" y="3" width="1" height="1"/><rect x="20" y="3" width="1" height="1"/><rect x="21" y="3" width="1" height="1"/><rect x="22" y="3" width="1" height="1"/><rect x="23" y="3" width="1" height="1"/><rect x="24" y="3" width="1" height="1"/><rect x="25" y="3" width="1" height="1"/><rect x="26" y="3" width="1" height="1"/><rect x="27" y="3" width="1" height="1"/><rect x="28" y="3" width="1" height="1"/><rect x="29" y="3" width="1" height="1"/><rect x="30" y="3" width="1" height="1"/><rect x="31" y="3" width="1" height="1"/><rect x="32" y="3" width="1" height="1"/><rect x="33" y="3" width="1" height="1"/><rect x="34" y="3" width="1" height="1"/><rect x="35" y="3" width="1" height="1"/><rect x="36" y="3" width="1" height="1"/><rect x="37" y="3" width="1" height="1"/><rect x="38" y="3" width="1" height="1"/><rect x="39" y="3" width="1" height="1"/><rect x="40" y="3" width="1" height="1"/><rect x="41" y="3" width="1" height="1"/><rect x="42" y="3" width="1" height="1"/><rect x="43" y="3" width="1" height="1"/><rect x="44" y="3" width="1" height="1"/><rect x="45" y="3" width="1" height="1"/><rect x="46" y="3" width="1" height="1"/><rect x="47" y="3" width="1" height="1"/><rect x="48" y="3" width="1" height="1"/><rect x="49" y="3" width="1" height="1"/><rect x="50" y="3" width="1" height="1"/><rect x="51" y="3" width="1" height="1"/><rect x="52" y="3" width="1" height="1"/><rect x="53" y="3" width="1" height="1"/><rect x="17" y="4" width="1" height="1"/><rect x="18" y="4" width="1" height="1"/><rect x="19" y="4" width="1" height="1"/><rect x="51" y="4" width="1" height="1"/><rect x="52" y="4" width="1" height="1"/><rect x="53" y="4" width="1" height="1"/><rect x="17" y="5" width="1" height="1"/><rect x="18" y="5" width="1" height="1"/><rect x="19" y="5" width="1" height="1"/><rect x="20" y="5" width="1" height="1"/><rect x="51" y="5" width="1" height="1"/><rect x="52" y="5" width="1" height="1"/><rect x="53" y="5" width="1" height="1"/><rect x="18" y="6" width="1" height="1"/><rect x="19" y="6" width="1" height="1"/><rect x="20" y="6" width="1" height="1"/><rect x="21" y="6" width="1" height="1"/><rect x="49" y="6" width="1" height="1"/><rect x="50" y="6" width="1" height="1"/><rect x="51" y="6" width="1" height="1"/><rect x="52" y="6" width="1" height="1"/><rect x="19" y="7" width="1" height="1"/><rect x="20" y="7" width="1" height="1"/><rect x="21" y="7" width="1" height="1"/><rect x="22" y="7" width="1" height="1"/><rect x="48" y="7" width="1" height="1"/><rect x="49" y="7" width="1" height="1"/><rect x="50" y="7" width="1" height="1"/><rect x="51" y="7" width="1" height="1"/><rect x="21" y="8" width="1" height="1"/><rect x="22" y="8" width="1" height="1"/><rect x="23" y="8" width="1" height="1"/><rect x="24" y="8" width="1" height="1"/><rect x="47" y="8" width="1" height="1"/><rect x="48" y="8" width="1" height="1"/><rect x="49" y="8" width="1" height="1"/><rect x="50" y="8" width="1" height="1"/><rect x="22" y="9" width="1" height="1"/><rect x="23" y="9" width="1" height="1"/><rect x="24" y="9" width="1" height="1"/><rect x="25" y="9" width="1" height="1"/><rect x="46" y="9" width="1" height="1"/><rect x="47" y="9" width="1" height="1"/><rect x="48" y="9" width="1" height="1"/><rect x="23" y="10" width="1" height="1"/><rect x="24" y="10" width="1" height="1"/><rect x="25" y="10" width="1" height="1"/><rect x="45" y="10" width="1" height="1"/><rect x="46" y="10" width="1" height="1"/><rect x="47" y="10" width="1" height="1"/><rect x="24" y="11" width="1" height="1"/><rect x="25" y="11" width="1" height="1"/><rect x="26" y="11" width="1" height="1"/><rect x="44" y="11" width="1" height="1"/><rect x="45" y="11" width="1" height="1"/><rect x="46" y="11" width="1" height="1"/><rect x="25" y="12" width="1" height="1"/><rect x="26" y="12" width="1" height="1"/><rect x="27" y="12" width="1" height="1"/><rect x="44" y="12" width="1" height="1"/><rect x="45" y="12" width="1" height="1"/><rect x="26" y="13" width="1" height="1"/><rect x="27" y="13" width="1" height="1"/><rect x="28" y="13" width="1" height="1"/><rect x="43" y="13" width="1" height="1"/><rect x="44" y="13" width="1" height="1"/><rect x="27" y="14" width="1" height="1"/><rect x="28" y="14" width="1" height="1"/><rect x="29" y="14" width="1" height="1"/><rect x="42" y="14" width="1" height="1"/><rect x="43" y="14" width="1" height="1"/><rect x="44" y="14" width="1" height="1"/><rect x="28" y="15" width="1" height="1"/><rect x="29" y="15" width="1" height="1"/><rect x="30" y="15" width="1" height="1"/><rect x="41" y="15" width="1" height="1"/><rect x="42" y="15" width="1" height="1"/><rect x="43" y="15" width="1" height="1"/><rect x="28" y="16" width="1" height="1"/><rect x="29" y="16" width="1" height="1"/><rect x="30" y="16" width="1" height="1"/><rect x="41" y="16" width="1" height="1"/><rect x="42" y="16" width="1" height="1"/><rect x="16" y="17" width="1" height="1"/><rect x="17" y="17" width="1" height="1"/><rect x="18" y="17" width="1" height="1"/><rect x="19" y="17" width="1" height="1"/><rect x="20" y="17" width="1" height="1"/><rect x="21" y="17" width="1" height="1"/><rect x="22" y="17" width="1" height="1"/><rect x="23" y="17" width="1" height="1"/><rect x="29" y="17" width="1" height="1"/><rect x="30" y="17" width="1" height="1"/><rect x="31" y="17" width="1" height="1"/><rect x="40" y="17" width="1" height="1"/><rect x="41" y="17" width="1" height="1"/><rect x="42" y="17" width="1" height="1"/><rect x="13" y="18" width="1" height="1"/><rect x="14" y="18" width="1" height="1"/><rect x="15" y="18" width="1" height="1"/><rect x="16" y="18" width="1" height="1"/><rect x="17" y="18" width="1" height="1"/><rect x="18" y="18" width="1" height="1"/><rect x="19" y="18" width="1" height="1"/><rect x="20" y="18" width="1" height="1"/><rect x="21" y="18" width="1" height="1"/><rect x="22" y="18" width="1" height="1"/><rect x="23" y="18" width="1" height="1"/><rect x="24" y="18" width="1" height="1"/><rect x="25" y="18" width="1" height="1"/><rect x="30" y="18" width="1" height="1"/><rect x="31" y="18" width="1" height="1"/><rect x="40" y="18" width="1" height="1"/><rect x="41" y="18" width="1" height="1"/><rect x="12" y="19" width="1" height="1"/><rect x="13" y="19" width="1" height="1"/><rect x="14" y="19" width="1" height="1"/><rect x="15" y="19" width="1" height="1"/><rect x="16" y="19" width="1" height="1"/><rect x="23" y="19" width="1" height="1"/><rect x="24" y="19" width="1" height="1"/><rect x="25" y="19" width="1" height="1"/><rect x="26" y="19" width="1" height="1"/><rect x="30" y="19" width="1" height="1"/><rect x="31" y="19" width="1" height="1"/><rect x="32" y="19" width="1" height="1"/><rect x="39" y="19" width="1" height="1"/><rect x="40" y="19" width="1" height="1"/><rect x="41" y="19" width="1" height="1"/><rect x="11" y="20" width="1" height="1"/><rect x="12" y="20" width="1" height="1"/><rect x="13" y="20" width="1" height="1"/><rect x="17" y="20" width="1" height="1"/><rect x="18" y="20" width="1" height="1"/><rect x="19" y="20" width="1" height="1"/><rect x="20" y="20" width="1" height="1"/><rect x="21" y="20" width="1" height="1"/><rect x="25" y="20" width="1" height="1"/><rect x="26" y="20" width="1" height="1"/><rect x="27" y="20" width="1" height="1"/><rect x="31" y="20" width="1" height="1"/><rect x="32" y="20" width="1" height="1"/><rect x="39" y="20" width="1" height="1"/><rect x="40" y="20" width="1" height="1"/><rect x="10" y="21" width="1" height="1"/><rect x="11" y="21" width="1" height="1"/><rect x="12" y="21" width="1" height="1"/><rect x="16" y="21" width="1" height="1"/><rect x="17" y="21" width="1" height="1"/><rect x="18" y="21" width="1" height="1"/><rect x="19" y="21" width="1" height="1"/><rect x="20" y="21" width="1" height="1"/><rect x="21" y="21" width="1" height="1"/><rect x="22" y="21" width="1" height="1"/><rect x="23" y="21" width="1" height="1"/><rect x="26" y="21" width="1" height="1"/><rect x="27" y="21" width="1" height="1"/><rect x="28" y="21" width="1" height="1"/><rect x="31" y="21" width="1" height="1"/><rect x="32" y="21" width="1" height="1"/><rect x="39" y="21" width="1" height="1"/><rect x="40" y="21" width="1" height="1"/><rect x="9" y="22" width="1" height="1"/><rect x="10" y="22" width="1" height="1"/><rect x="11" y="22" width="1" height="1"/><rect x="15" y="22" width="1" height="1"/><rect x="16" y="22" width="1" height="1"/><rect x="17" y="22" width="1" height="1"/><rect x="18" y="22" width="1" height="1"/><rect x="19" y="22" width="1" height="1"/><rect x="20" y="22" width="1" height="1"/><rect x="21" y="22" width="1" height="1"/><rect x="22" y="22" width="1" height="1"/><rect x="23" y="22" width="1" height="1"/><rect x="24" y="22" width="1" height="1"/><rect x="27" y="22" width="1" height="1"/><rect x="28" y="22" width="1" height="1"/><rect x="31" y="22" width="1" height="1"/><rect x="32" y="22" width="1" height="1"/><rect x="39" y="22" width="1" height="1"/><rect x="40" y="22" width="1" height="1"/><rect x="9" y="23" width="1" height="1"/><rect x="10" y="23" width="1" height="1"/><rect x="11" y="23" width="1" height="1"/><rect x="14" y="23" width="1" height="1"/><rect x="15" y="23" width="1" height="1"/><rect x="16" y="23" width="1" height="1"/><rect x="22" y="23" width="1" height="1"/><rect x="23" y="23" width="1" height="1"/><rect x="24" y="23" width="1" height="1"/><rect x="25" y="23" width="1" height="1"/><rect x="27" y="23" width="1" height="1"/><rect x="28" y="23" width="1" height="1"/><rect x="31" y="23" width="1" height="1"/><rect x="32" y="23" width="1" height="1"/><rect x="39" y="23" width="1" height="1"/><rect x="40" y="23" width="1" height="1"/><rect x="8" y="24" width="1" height="1"/><rect x="9" y="24" width="1" height="1"/><rect x="10" y="24" width="1" height="1"/><rect x="13" y="24" width="1" height="1"/><rect x="14" y="24" width="1" height="1"/><rect x="15" y="24" width="1" height="1"/><rect x="24" y="24" width="1" height="1"/><rect x="25" y="24" width="1" height="1"/><rect x="27" y="24" width="1" height="1"/><rect x="28" y="24" width="1" height="1"/><rect x="29" y="24" width="1" height="1"/><rect x="31" y="24" width="1" height="1"/><rect x="32" y="24" width="1" height="1"/><rect x="39" y="24" width="1" height="1"/><rect x="40" y="24" width="1" height="1"/><rect x="48" y="24" width="1" height="1"/><rect x="49" y="24" width="1" height="1"/><rect x="50" y="24" width="1" height="1"/><rect x="8" y="25" width="1" height="1"/><rect x="9" y="25" width="1" height="1"/><rect x="10" y="25" width="1" height="1"/><rect x="13" y="25" width="1" height="1"/><rect x="14" y="25" width="1" height="1"/><rect x="15" y="25" width="1" height="1"/><rect x="22" y="25" width="1" height="1"/><rect x="23" y="25" width="1" height="1"/><rect x="24" y="25" width="1" height="1"/><rect x="25" y="25" width="1" height="1"/><rect x="27" y="25" width="1" height="1"/><rect x="28" y="25" width="1" height="1"/><rect x="29" y="25" width="1" height="1"/><rect x="30" y="25" width="1" height="1"/><rect x="31" y="25" width="1" height="1"/><rect x="32" y="25" width="1" height="1"/><rect x="39" y="25" width="1" height="1"/><rect x="40" y="25" width="1" height="1"/><rect x="47" y="25" width="1" height="1"/><rect x="48" y="25" width="1" height="1"/><rect x="49" y="25" width="1" height="1"/><rect x="50" y="25" width="1" height="1"/><rect x="51" y="25" width="1" height="1"/><rect x="7" y="26" width="1" height="1"/><rect x="8" y="26" width="1" height="1"/><rect x="9" y="26" width="1" height="1"/><rect x="12" y="26" width="1" height="1"/><rect x="13" y="26" width="1" height="1"/><rect x="14" y="26" width="1" height="1"/><rect x="18" y="26" width="1" height="1"/><rect x="19" y="26" width="1" height="1"/><rect x="20" y="26" width="1" height="1"/><rect x="21" y="26" width="1" height="1"/><rect x="22" y="26" width="1" height="1"/><rect x="23" y="26" width="1" height="1"/><rect x="24" y="26" width="1" height="1"/><rect x="25" y="26" width="1" height="1"/><rect x="27" y="26" width="1" height="1"/><rect x="28" y="26" width="1" height="1"/><rect x="29" y="26" width="1" height="1"/><rect x="30" y="26" width="1" height="1"/><rect x="31" y="26" width="1" height="1"/><rect x="32" y="26" width="1" height="1"/><rect x="39" y="26" width="1" height="1"/><rect x="40" y="26" width="1" height="1"/><rect x="46" y="26" width="1" height="1"/><rect x="47" y="26" width="1" height="1"/><rect x="48" y="26" width="1" height="1"/><rect x="50" y="26" width="1" height="1"/><rect x="51" y="26" width="1" height="1"/><rect x="52" y="26" width="1" height="1"/><rect x="7" y="27" width="1" height="1"/><rect x="8" y="27" width="1" height="1"/><rect x="9" y="27" width="1" height="1"/><rect x="12" y="27" width="1" height="1"/><rect x="13" y="27" width="1" height="1"/><rect x="14" y="27" width="1" height="1"/><rect x="17" y="27" width="1" height="1"/><rect x="18" y="27" width="1" height="1"/><rect x="19" y="27" width="1" height="1"/><rect x="20" y="27" width="1" height="1"/><rect x="21" y="27" width="1" height="1"/><rect x="22" y="27" width="1" height="1"/><rect x="23" y="27" width="1" height="1"/><rect x="24" y="27" width="1" height="1"/><rect x="25" y="27" width="1" height="1"/><rect x="27" y="27" width="1" height="1"/><rect x="28" y="27" width="1" height="1"/><rect x="29" y="27" width="1" height="1"/><rect x="30" y="27" width="1" height="1"/><rect x="31" y="27" width="1" height="1"/><rect x="32" y="27" width="1" height="1"/><rect x="39" y="27" width="1" height="1"/><rect x="40" y="27" width="1" height="1"/><rect x="41" y="27" width="1" height="1"/><rect x="42" y="27" width="1" height="1"/><rect x="43" y="27" width="1" height="1"/><rect x="44" y="27" width="1" height="1"/><rect x="45" y="27" width="1" height="1"/><rect x="46" y="27" width="1" height="1"/><rect x="47" y="27" width="1" height="1"/><rect x="48" y="27" width="1" height="1"/><rect x="50" y="27" width="1" height="1"/><rect x="51" y="27" width="1" height="1"/><rect x="52" y="27" width="1" height="1"/><rect x="7" y="28" width="1" height="1"/><rect x="8" y="28" width="1" height="1"/><rect x="9" y="28" width="1" height="1"/><rect x="12" y="28" width="1" height="1"/><rect x="13" y="28" width="1" height="1"/><rect x="14" y="28" width="1" height="1"/><rect x="17" y="28" width="1" height="1"/><rect x="18" y="28" width="1" height="1"/><rect x="19" y="28" width="1" height="1"/><rect x="20" y="28" width="1" height="1"/><rect x="24" y="28" width="1" height="1"/><rect x="25" y="28" width="1" height="1"/><rect x="27" y="28" width="1" height="1"/><rect x="28" y="28" width="1" height="1"/><rect x="29" y="28" width="1" height="1"/><rect x="31" y="28" width="1" height="1"/><rect x="32" y="28" width="1" height="1"/><rect x="39" y="28" width="1" height="1"/><rect x="40" y="28" width="1" height="1"/><rect x="41" y="28" width="1" height="1"/><rect x="42" y="28" width="1" height="1"/><rect x="43" y="28" width="1" height="1"/><rect x="44" y="28" width="1" height="1"/><rect x="45" y="28" width="1" height="1"/><rect x="46" y="28" width="1" height="1"/><rect x="47" y="28" width="1" height="1"/><rect x="48" y="28" width="1" height="1"/><rect x="50" y="28" width="1" height="1"/><rect x="51" y="28" width="1" height="1"/><rect x="52" y="28" width="1" height="1"/><rect x="7" y="29" width="1" height="1"/><rect x="8" y="29" width="1" height="1"/><rect x="9" y="29" width="1" height="1"/><rect x="12" y="29" width="1" height="1"/><rect x="13" y="29" width="1" height="1"/><rect x="14" y="29" width="1" height="1"/><rect x="16" y="29" width="1" height="1"/><rect x="17" y="29" width="1" height="1"/><rect x="18" y="29" width="1" height="1"/><rect x="19" y="29" width="1" height="1"/><rect x="23" y="29" width="1" height="1"/><rect x="24" y="29" width="1" height="1"/><rect x="25" y="29" width="1" height="1"/><rect x="27" y="29" width="1" height="1"/><rect x="28" y="29" width="1" height="1"/><rect x="29" y="29" width="1" height="1"/><rect x="31" y="29" width="1" height="1"/><rect x="32" y="29" width="1" height="1"/><rect x="39" y="29" width="1" height="1"/><rect x="40" y="29" width="1" height="1"/><rect x="47" y="29" width="1" height="1"/><rect x="48" y="29" width="1" height="1"/><rect x="50" y="29" width="1" height="1"/><rect x="51" y="29" width="1" height="1"/><rect x="52" y="29" width="1" height="1"/><rect x="7" y="30" width="1" height="1"/><rect x="8" y="30" width="1" height="1"/><rect x="12" y="30" width="1" height="1"/><rect x="13" y="30" width="1" height="1"/><rect x="16" y="30" width="1" height="1"/><rect x="17" y="30" width="1" height="1"/><rect x="18" y="30" width="1" height="1"/><rect x="21" y="30" width="1" height="1"/><rect x="22" y="30" width="1" height="1"/><rect x="23" y="30" width="1" height="1"/><rect x="24" y="30" width="1" height="1"/><rect x="25" y="30" width="1" height="1"/><rect x="27" y="30" width="1" height="1"/><rect x="28" y="30" width="1" height="1"/><rect x="29" y="30" width="1" height="1"/><rect x="30" y="30" width="1" height="1"/><rect x="31" y="30" width="1" height="1"/><rect x="32" y="30" width="1" height="1"/><rect x="39" y="30" width="1" height="1"/><rect x="40" y="30" width="1" height="1"/><rect x="47" y="30" width="1" height="1"/><rect x="48" y="30" width="1" height="1"/><rect x="50" y="30" width="1" height="1"/><rect x="51" y="30" width="1" height="1"/><rect x="52" y="30" width="1" height="1"/><rect x="7" y="31" width="1" height="1"/><rect x="8" y="31" width="1" height="1"/><rect x="12" y="31" width="1" height="1"/><rect x="13" y="31" width="1" height="1"/><rect x="16" y="31" width="1" height="1"/><rect x="17" y="31" width="1" height="1"/><rect x="20" y="31" width="1" height="1"/><rect x="21" y="31" width="1" height="1"/><rect x="22" y="31" width="1" height="1"/><rect x="23" y="31" width="1" height="1"/><rect x="24" y="31" width="1" height="1"/><rect x="25" y="31" width="1" height="1"/><rect x="27" y="31" width="1" height="1"/><rect x="28" y="31" width="1" height="1"/><rect x="29" y="31" width="1" height="1"/><rect x="30" y="31" width="1" height="1"/><rect x="31" y="31" width="1" height="1"/><rect x="32" y="31" width="1" height="1"/><rect x="39" y="31" width="1" height="1"/><rect x="40" y="31" width="1" height="1"/><rect x="41" y="31" width="1" height="1"/><rect x="42" y="31" width="1" height="1"/><rect x="43" y="31" width="1" height="1"/><rect x="44" y="31" width="1" height="1"/><rect x="45" y="31" width="1" height="1"/><rect x="46" y="31" width="1" height="1"/><rect x="47" y="31" width="1" height="1"/><rect x="48" y="31" width="1" height="1"/><rect x="50" y="31" width="1" height="1"/><rect x="51" y="31" width="1" height="1"/><rect x="52" y="31" width="1" height="1"/><rect x="7" y="32" width="1" height="1"/><rect x="8" y="32" width="1" height="1"/><rect x="12" y="32" width="1" height="1"/><rect x="13" y="32" width="1" height="1"/><rect x="16" y="32" width="1" height="1"/><rect x="17" y="32" width="1" height="1"/><rect x="20" y="32" width="1" height="1"/><rect x="21" y="32" width="1" height="1"/><rect x="22" y="32" width="1" height="1"/><rect x="24" y="32" width="1" height="1"/><rect x="25" y="32" width="1" height="1"/><rect x="27" y="32" width="1" height="1"/><rect x="28" y="32" width="1" height="1"/><rect x="29" y="32" width="1" height="1"/><rect x="31" y="32" width="1" height="1"/><rect x="32" y="32" width="1" height="1"/><rect x="39" y="32" width="1" height="1"/><rect x="40" y="32" width="1" height="1"/><rect x="41" y="32" width="1" height="1"/><rect x="42" y="32" width="1" height="1"/><rect x="43" y="32" width="1" height="1"/><rect x="44" y="32" width="1" height="1"/><rect x="45" y="32" width="1" height="1"/><rect x="46" y="32" width="1" height="1"/><rect x="47" y="32" width="1" height="1"/><rect x="48" y="32" width="1" height="1"/><rect x="50" y="32" width="1" height="1"/><rect x="51" y="32" width="1" height="1"/><rect x="52" y="32" width="1" height="1"/><rect x="7" y="33" width="1" height="1"/><rect x="8" y="33" width="1" height="1"/><rect x="12" y="33" width="1" height="1"/><rect x="13" y="33" width="1" height="1"/><rect x="16" y="33" width="1" height="1"/><rect x="17" y="33" width="1" height="1"/><rect x="20" y="33" width="1" height="1"/><rect x="21" y="33" width="1" height="1"/><rect x="24" y="33" width="1" height="1"/><rect x="25" y="33" width="1" height="1"/><rect x="27" y="33" width="1" height="1"/><rect x="28" y="33" width="1" height="1"/><rect x="29" y="33" width="1" height="1"/><rect x="31" y="33" width="1" height="1"/><rect x="32" y="33" width="1" height="1"/><rect x="39" y="33" width="1" height="1"/><rect x="40" y="33" width="1" height="1"/><rect x="47" y="33" width="1" height="1"/><rect x="48" y="33" width="1" height="1"/><rect x="49" y="33" width="1" height="1"/><rect x="50" y="33" width="1" height="1"/><rect x="51" y="33" width="1" height="1"/><rect x="7" y="34" width="1" height="1"/><rect x="8" y="34" width="1" height="1"/><rect x="12" y="34" width="1" height="1"/><rect x="13" y="34" width="1" height="1"/><rect x="16" y="34" width="1" height="1"/><rect x="17" y="34" width="1" height="1"/><rect x="20" y="34" width="1" height="1"/><rect x="21" y="34" width="1" height="1"/><rect x="24" y="34" width="1" height="1"/><rect x="25" y="34" width="1" height="1"/><rect x="27" y="34" width="1" height="1"/><rect x="28" y="34" width="1" height="1"/><rect x="29" y="34" width="1" height="1"/><rect x="31" y="34" width="1" height="1"/><rect x="32" y="34" width="1" height="1"/><rect x="39" y="34" width="1" height="1"/><rect x="40" y="34" width="1" height="1"/><rect x="47" y="34" width="1" height="1"/><rect x="48" y="34" width="1" height="1"/><rect x="49" y="34" width="1" height="1"/><rect x="50" y="34" width="1" height="1"/><rect x="51" y="34" width="1" height="1"/><rect x="7" y="35" width="1" height="1"/><rect x="8" y="35" width="1" height="1"/><rect x="12" y="35" width="1" height="1"/><rect x="13" y="35" width="1" height="1"/><rect x="16" y="35" width="1" height="1"/><rect x="17" y="35" width="1" height="1"/><rect x="20" y="35" width="1" height="1"/><rect x="21" y="35" width="1" height="1"/><rect x="24" y="35" width="1" height="1"/><rect x="25" y="35" width="1" height="1"/><rect x="27" y="35" width="1" height="1"/><rect x="28" y="35" width="1" height="1"/><rect x="29" y="35" width="1" height="1"/><rect x="31" y="35" width="1" height="1"/><rect x="32" y="35" width="1" height="1"/><rect x="39" y="35" width="1" height="1"/><rect x="40" y="35" width="1" height="1"/><rect x="7" y="36" width="1" height="1"/><rect x="8" y="36" width="1" height="1"/><rect x="12" y="36" width="1" height="1"/><rect x="13" y="36" width="1" height="1"/><rect x="16" y="36" width="1" height="1"/><rect x="17" y="36" width="1" height="1"/><rect x="20" y="36" width="1" height="1"/><rect x="21" y="36" width="1" height="1"/><rect x="24" y="36" width="1" height="1"/><rect x="25" y="36" width="1" height="1"/><rect x="27" y="36" width="1" height="1"/><rect x="28" y="36" width="1" height="1"/><rect x="29" y="36" width="1" height="1"/><rect x="31" y="36" width="1" height="1"/><rect x="32" y="36" width="1" height="1"/><rect x="39" y="36" width="1" height="1"/><rect x="40" y="36" width="1" height="1"/><rect x="7" y="37" width="1" height="1"/><rect x="8" y="37" width="1" height="1"/><rect x="12" y="37" width="1" height="1"/><rect x="13" y="37" width="1" height="1"/><rect x="16" y="37" width="1" height="1"/><rect x="17" y="37" width="1" height="1"/><rect x="20" y="37" width="1" height="1"/><rect x="21" y="37" width="1" height="1"/><rect x="24" y="37" width="1" height="1"/><rect x="25" y="37" width="1" height="1"/><rect x="27" y="37" width="1" height="1"/><rect x="28" y="37" width="1" height="1"/><rect x="29" y="37" width="1" height="1"/><rect x="31" y="37" width="1" height="1"/><rect x="32" y="37" width="1" height="1"/><rect x="39" y="37" width="1" height="1"/><rect x="40" y="37" width="1" height="1"/><rect x="7" y="38" width="1" height="1"/><rect x="8" y="38" width="1" height="1"/><rect x="12" y="38" width="1" height="1"/><rect x="13" y="38" width="1" height="1"/><rect x="16" y="38" width="1" height="1"/><rect x="17" y="38" width="1" height="1"/><rect x="20" y="38" width="1" height="1"/><rect x="21" y="38" width="1" height="1"/><rect x="24" y="38" width="1" height="1"/><rect x="25" y="38" width="1" height="1"/><rect x="27" y="38" width="1" height="1"/><rect x="28" y="38" width="1" height="1"/><rect x="29" y="38" width="1" height="1"/><rect x="31" y="38" width="1" height="1"/><rect x="32" y="38" width="1" height="1"/><rect x="39" y="38" width="1" height="1"/><rect x="40" y="38" width="1" height="1"/><rect x="7" y="39" width="1" height="1"/><rect x="8" y="39" width="1" height="1"/><rect x="12" y="39" width="1" height="1"/><rect x="13" y="39" width="1" height="1"/><rect x="16" y="39" width="1" height="1"/><rect x="17" y="39" width="1" height="1"/><rect x="20" y="39" width="1" height="1"/><rect x="21" y="39" width="1" height="1"/><rect x="24" y="39" width="1" height="1"/><rect x="25" y="39" width="1" height="1"/><rect x="27" y="39" width="1" height="1"/><rect x="28" y="39" width="1" height="1"/><rect x="29" y="39" width="1" height="1"/><rect x="31" y="39" width="1" height="1"/><rect x="32" y="39" width="1" height="1"/><rect x="39" y="39" width="1" height="1"/><rect x="40" y="39" width="1" height="1"/><rect x="7" y="40" width="1" height="1"/><rect x="8" y="40" width="1" height="1"/><rect x="12" y="40" width="1" height="1"/><rect x="13" y="40" width="1" height="1"/><rect x="16" y="40" width="1" height="1"/><rect x="17" y="40" width="1" height="1"/><rect x="20" y="40" width="1" height="1"/><rect x="21" y="40" width="1" height="1"/><rect x="24" y="40" width="1" height="1"/><rect x="25" y="40" width="1" height="1"/><rect x="27" y="40" width="1" height="1"/><rect x="28" y="40" width="1" height="1"/><rect x="29" y="40" width="1" height="1"/><rect x="31" y="40" width="1" height="1"/><rect x="32" y="40" width="1" height="1"/><rect x="39" y="40" width="1" height="1"/><rect x="40" y="40" width="1" height="1"/><rect x="7" y="41" width="1" height="1"/><rect x="8" y="41" width="1" height="1"/><rect x="12" y="41" width="1" height="1"/><rect x="13" y="41" width="1" height="1"/><rect x="16" y="41" width="1" height="1"/><rect x="17" y="41" width="1" height="1"/><rect x="20" y="41" width="1" height="1"/><rect x="21" y="41" width="1" height="1"/><rect x="24" y="41" width="1" height="1"/><rect x="25" y="41" width="1" height="1"/><rect x="27" y="41" width="1" height="1"/><rect x="28" y="41" width="1" height="1"/><rect x="29" y="41" width="1" height="1"/><rect x="31" y="41" width="1" height="1"/><rect x="32" y="41" width="1" height="1"/><rect x="39" y="41" width="1" height="1"/><rect x="40" y="41" width="1" height="1"/><rect x="7" y="42" width="1" height="1"/><rect x="8" y="42" width="1" height="1"/><rect x="12" y="42" width="1" height="1"/><rect x="13" y="42" width="1" height="1"/><rect x="16" y="42" width="1" height="1"/><rect x="17" y="42" width="1" height="1"/><rect x="20" y="42" width="1" height="1"/><rect x="21" y="42" width="1" height="1"/><rect x="24" y="42" width="1" height="1"/><rect x="25" y="42" width="1" height="1"/><rect x="27" y="42" width="1" height="1"/><rect x="28" y="42" width="1" height="1"/><rect x="29" y="42" width="1" height="1"/><rect x="31" y="42" width="1" height="1"/><rect x="32" y="42" width="1" height="1"/><rect x="39" y="42" width="1" height="1"/><rect x="40" y="42" width="1" height="1"/><rect x="7" y="43" width="1" height="1"/><rect x="8" y="43" width="1" height="1"/><rect x="12" y="43" width="1" height="1"/><rect x="13" y="43" width="1" height="1"/><rect x="16" y="43" width="1" height="1"/><rect x="17" y="43" width="1" height="1"/><rect x="20" y="43" width="1" height="1"/><rect x="21" y="43" width="1" height="1"/><rect x="24" y="43" width="1" height="1"/><rect x="25" y="43" width="1" height="1"/><rect x="27" y="43" width="1" height="1"/><rect x="28" y="43" width="1" height="1"/><rect x="29" y="43" width="1" height="1"/><rect x="31" y="43" width="1" height="1"/><rect x="32" y="43" width="1" height="1"/><rect x="39" y="43" width="1" height="1"/><rect x="40" y="43" width="1" height="1"/><rect x="7" y="44" width="1" height="1"/><rect x="8" y="44" width="1" height="1"/><rect x="12" y="44" width="1" height="1"/><rect x="13" y="44" width="1" height="1"/><rect x="16" y="44" width="1" height="1"/><rect x="17" y="44" width="1" height="1"/><rect x="20" y="44" width="1" height="1"/><rect x="21" y="44" width="1" height="1"/><rect x="22" y="44" width="1" height="1"/><rect x="23" y="44" width="1" height="1"/><rect x="24" y="44" width="1" height="1"/><rect x="25" y="44" width="1" height="1"/><rect x="27" y="44" width="1" height="1"/><rect x="28" y="44" width="1" height="1"/><rect x="29" y="44" width="1" height="1"/><rect x="31" y="44" width="1" height="1"/><rect x="32" y="44" width="1" height="1"/><rect x="39" y="44" width="1" height="1"/><rect x="40" y="44" width="1" height="1"/><rect x="7" y="45" width="1" height="1"/><rect x="8" y="45" width="1" height="1"/><rect x="12" y="45" width="1" height="1"/><rect x="13" y="45" width="1" height="1"/><rect x="16" y="45" width="1" height="1"/><rect x="17" y="45" width="1" height="1"/><rect x="18" y="45" width="1" height="1"/><rect x="21" y="45" width="1" height="1"/><rect x="22" y="45" width="1" height="1"/><rect x="23" y="45" width="1" height="1"/><rect x="24" y="45" width="1" height="1"/><rect x="25" y="45" width="1" height="1"/><rect x="27" y="45" width="1" height="1"/><rect x="28" y="45" width="1" height="1"/><rect x="29" y="45" width="1" height="1"/><rect x="31" y="45" width="1" height="1"/><rect x="32" y="45" width="1" height="1"/><rect x="39" y="45" width="1" height="1"/><rect x="40" y="45" width="1" height="1"/><rect x="7" y="46" width="1" height="1"/><rect x="8" y="46" width="1" height="1"/><rect x="9" y="46" width="1" height="1"/><rect x="12" y="46" width="1" height="1"/><rect x="13" y="46" width="1" height="1"/><rect x="14" y="46" width="1" height="1"/><rect x="17" y="46" width="1" height="1"/><rect x="18" y="46" width="1" height="1"/><rect x="19" y="46" width="1" height="1"/><rect x="26" y="46" width="1" height="1"/><rect x="27" y="46" width="1" height="1"/><rect x="28" y="46" width="1" height="1"/><rect x="31" y="46" width="1" height="1"/><rect x="32" y="46" width="1" height="1"/><rect x="39" y="46" width="1" height="1"/><rect x="40" y="46" width="1" height="1"/><rect x="7" y="47" width="1" height="1"/><rect x="8" y="47" width="1" height="1"/><rect x="9" y="47" width="1" height="1"/><rect x="13" y="47" width="1" height="1"/><rect x="14" y="47" width="1" height="1"/><rect x="17" y="47" width="1" height="1"/><rect x="18" y="47" width="1" height="1"/><rect x="19" y="47" width="1" height="1"/><rect x="20" y="47" width="1" height="1"/><rect x="21" y="47" width="1" height="1"/><rect x="22" y="47" width="1" height="1"/><rect x="24" y="47" width="1" height="1"/><rect x="25" y="47" width="1" height="1"/><rect x="26" y="47" width="1" height="1"/><rect x="27" y="47" width="1" height="1"/><rect x="31" y="47" width="1" height="1"/><rect x="32" y="47" width="1" height="1"/><rect x="39" y="47" width="1" height="1"/><rect x="40" y="47" width="1" height="1"/><rect x="7" y="48" width="1" height="1"/><rect x="8" y="48" width="1" height="1"/><rect x="9" y="48" width="1" height="1"/><rect x="13" y="48" width="1" height="1"/><rect x="14" y="48" width="1" height="1"/><rect x="15" y="48" width="1" height="1"/><rect x="18" y="48" width="1" height="1"/><rect x="19" y="48" width="1" height="1"/><rect x="20" y="48" width="1" height="1"/><rect x="21" y="48" width="1" height="1"/><rect x="22" y="48" width="1" height="1"/><rect x="23" y="48" width="1" height="1"/><rect x="24" y="48" width="1" height="1"/><rect x="25" y="48" width="1" height="1"/><rect x="26" y="48" width="1" height="1"/><rect x="30" y="48" width="1" height="1"/><rect x="31" y="48" width="1" height="1"/><rect x="32" y="48" width="1" height="1"/><rect x="39" y="48" width="1" height="1"/><rect x="40" y="48" width="1" height="1"/><rect x="8" y="49" width="1" height="1"/><rect x="9" y="49" width="1" height="1"/><rect x="10" y="49" width="1" height="1"/><rect x="14" y="49" width="1" height="1"/><rect x="15" y="49" width="1" height="1"/><rect x="16" y="49" width="1" height="1"/><rect x="29" y="49" width="1" height="1"/><rect x="30" y="49" width="1" height="1"/><rect x="31" y="49" width="1" height="1"/><rect x="38" y="49" width="1" height="1"/><rect x="39" y="49" width="1" height="1"/><rect x="40" y="49" width="1" height="1"/><rect x="8" y="50" width="1" height="1"/><rect x="9" y="50" width="1" height="1"/><rect x="10" y="50" width="1" height="1"/><rect x="15" y="50" width="1" height="1"/><rect x="16" y="50" width="1" height="1"/><rect x="17" y="50" width="1" height="1"/><rect x="18" y="50" width="1" height="1"/><rect x="28" y="50" width="1" height="1"/><rect x="29" y="50" width="1" height="1"/><rect x="30" y="50" width="1" height="1"/><rect x="38" y="50" width="1" height="1"/><rect x="39" y="50" width="1" height="1"/><rect x="9" y="51" width="1" height="1"/><rect x="10" y="51" width="1" height="1"/><rect x="16" y="51" width="1" height="1"/><rect x="17" y="51" width="1" height="1"/><rect x="18" y="51" width="1" height="1"/><rect x="19" y="51" width="1" height="1"/><rect x="20" y="51" width="1" height="1"/><rect x="21" y="51" width="1" height="1"/><rect x="24" y="51" width="1" height="1"/><rect x="25" y="51" width="1" height="1"/><rect x="26" y="51" width="1" height="1"/><rect x="27" y="51" width="1" height="1"/><rect x="28" y="51" width="1" height="1"/><rect x="29" y="51" width="1" height="1"/><rect x="38" y="51" width="1" height="1"/><rect x="39" y="51" width="1" height="1"/><rect x="9" y="52" width="1" height="1"/><rect x="10" y="52" width="1" height="1"/><rect x="11" y="52" width="1" height="1"/><rect x="17" y="52" width="1" height="1"/><rect x="18" y="52" width="1" height="1"/><rect x="19" y="52" width="1" height="1"/><rect x="20" y="52" width="1" height="1"/><rect x="21" y="52" width="1" height="1"/><rect x="22" y="52" width="1" height="1"/><rect x="23" y="52" width="1" height="1"/><rect x="24" y="52" width="1" height="1"/><rect x="25" y="52" width="1" height="1"/><rect x="26" y="52" width="1" height="1"/><rect x="27" y="52" width="1" height="1"/><rect x="37" y="52" width="1" height="1"/><rect x="38" y="52" width="1" height="1"/><rect x="10" y="53" width="1" height="1"/><rect x="11" y="53" width="1" height="1"/><rect x="12" y="53" width="1" height="1"/><rect x="19" y="53" width="1" height="1"/><rect x="20" y="53" width="1" height="1"/><rect x="21" y="53" width="1" height="1"/><rect x="22" y="53" width="1" height="1"/><rect x="23" y="53" width="1" height="1"/><rect x="24" y="53" width="1" height="1"/><rect x="25" y="53" width="1" height="1"/><rect x="26" y="53" width="1" height="1"/><rect x="36" y="53" width="1" height="1"/><rect x="37" y="53" width="1" height="1"/><rect x="38" y="53" width="1" height="1"/><rect x="11" y="54" width="1" height="1"/><rect x="12" y="54" width="1" height="1"/><rect x="13" y="54" width="1" height="1"/><rect x="35" y="54" width="1" height="1"/><rect x="36" y="54" width="1" height="1"/><rect x="37" y="54" width="1" height="1"/><rect x="38" y="54" width="1" height="1"/><rect x="12" y="55" width="1" height="1"/><rect x="13" y="55" width="1" height="1"/><rect x="14" y="55" width="1" height="1"/><rect x="34" y="55" width="1" height="1"/><rect x="35" y="55" width="1" height="1"/><rect x="36" y="55" width="1" height="1"/><rect x="13" y="56" width="1" height="1"/><rect x="14" y="56" width="1" height="1"/><rect x="15" y="56" width="1" height="1"/><rect x="16" y="56" width="1" height="1"/><rect x="17" y="56" width="1" height="1"/><rect x="32" y="56" width="1" height="1"/><rect x="33" y="56" width="1" height="1"/><rect x="34" y="56" width="1" height="1"/><rect x="35" y="56" width="1" height="1"/><rect x="14" y="57" width="1" height="1"/><rect x="15" y="57" width="1" height="1"/><rect x="16" y="57" width="1" height="1"/><rect x="17" y="57" width="1" height="1"/><rect x="18" y="57" width="1" height="1"/><rect x="19" y="57" width="1" height="1"/><rect x="20" y="57" width="1" height="1"/><rect x="21" y="57" width="1" height="1"/><rect x="27" y="57" width="1" height="1"/><rect x="28" y="57" width="1" height="1"/><rect x="29" y="57" width="1" height="1"/><rect x="30" y="57" width="1" height="1"/><rect x="31" y="57" width="1" height="1"/><rect x="32" y="57" width="1" height="1"/><rect x="33" y="57" width="1" height="1"/><rect x="34" y="57" width="1" height="1"/><rect x="17" y="58" width="1" height="1"/><rect x="18" y="58" width="1" height="1"/><rect x="19" y="58" width="1" height="1"/><rect x="20" y="58" width="1" height="1"/><rect x="21" y="58" width="1" height="1"/><rect x="22" y="58" width="1" height="1"/><rect x="23" y="58" width="1" height="1"/><rect x="24" y="58" width="1" height="1"/><rect x="25" y="58" width="1" height="1"/><rect x="26" y="58" width="1" height="1"/><rect x="27" y="58" width="1" height="1"/><rect x="28" y="58" width="1" height="1"/><rect x="29" y="58" width="1" height="1"/><rect x="30" y="58" width="1" height="1"/><rect x="31" y="58" width="1" height="1"/><rect x="32" y="58" width="1" height="1"/></g></svg>